<?xml version="1.0" standalone="no"?><!DOCTYPE svg PUBLIC "-//W3C//DTD SVG 1.1//EN" "http://www.w3.org/Graphics/SVG/1.1/DTD/svg11.dtd"><svg t="1725770383079" class="icon" viewBox="0 0 1169 1024" version="1.1" xmlns="http://www.w3.org/2000/svg" p-id="4271" xmlns:xlink="http://www.w3.org/1999/xlink" width="228.3203125" height="200"><path d="M1063.019266 149.646925C997.621807 71.462252 907.599829 28.278008 782.577423 28.278008c0 0-128.529756 14.613957-200.211218 40.919081C511.050093 42.891965 442.802911 28.935636 379.232196 28.935636c-112.308263 0-209.929499 42.380477-274.7424 119.834451C34.3428 232.654203 7.306979 350.4427 30.397032 472.176966c18.486656 96.817468 102.882261 293.521336 460.778079 524.787213 7.087769 4.895676 41.649779 27.035821 83.518767 27.035821 42.307407 0 80.669045-23.89382 84.907092-26.597403 373.459683-230.681319 460.631939-428.188954 479.337806-525.298701 23.236192-121.003568-5.845583-238.572856-75.91951-322.456971z m-89.14514 343.428h-96.452119l-47.203083 122.538033a21.628657 21.628657 0 0 1-41.13829-2.557442l-35.146568-141.463108-55.533038 143.947481A21.628657 21.628657 0 1 1 657.628086 614.516912L584.339089 389.023548l-63.789924 224.762666a21.628657 21.628657 0 0 1-40.919081 1.972884l-59.990295-153.081204-60.063365 153.081204c-0.438419 1.242186-1.169117 2.192094-1.826745 3.215071a21.336378 21.336378 0 0 1-13.079492 9.791351l-0.365349 0.14614a22.140146 22.140146 0 0 1-3.872699 0.438418l-0.949907 0.14614h-0.14614-0.146139a21.482517 21.482517 0 0 1-14.613958-5.991722l-0.584558-0.657629a21.044099 21.044099 0 0 1-4.384187-6.79549c-0.511489-1.022977-1.096047-1.972884-1.461396-3.068931l-28.716426-119.834451H195.315542a21.628657 21.628657 0 1 1 0-43.257314h111.139146c10.010561 0 18.705866 6.86856 21.044099 16.586841l16.806051 69.854717 55.167689-140.73241a21.628657 21.628657 0 0 1 40.261453 0l56.775225 144.678179 65.616669-231.485087a21.628657 21.628657 0 0 1 41.3575-0.730698l76.430997 235.284716 58.236621-151.10832a21.628657 21.628657 0 0 1 41.21136 2.557442l35.146568 141.463108 27.985728-72.485229a21.628657 21.628657 0 0 1 20.167262-13.883259h111.139146a21.628657 21.628657 0 0 1 0 43.257314z" fill="#333333" p-id="4272"></path></svg>