<?xml version="1.0" standalone="no"?><!DOCTYPE svg PUBLIC "-//W3C//DTD SVG 1.1//EN" "http://www.w3.org/Graphics/SVG/1.1/DTD/svg11.dtd"><svg t="1725770956942" class="icon" viewBox="0 0 1339 1024" version="1.1" xmlns="http://www.w3.org/2000/svg" p-id="8378" xmlns:xlink="http://www.w3.org/1999/xlink" width="261.5234375" height="200"><path d="M692.806477 651.526086m-54.088643 368.512561a372.460856 372.460856 0 1 0 108.177285-737.025122 372.460856 372.460856 0 1 0-108.177285 737.025122Z" fill="#FFD21F" p-id="8379"></path><path d="M436.820006 593.676327a11.076051 11.076051 0 0 1-3.322815-21.655589l118.628324-37.314834-119.697736-51.713699a11.076051 11.076051 0 0 1 8.784454-20.357018L588.17997 526.112417a11.076051 11.076051 0 0 1-1.069411 20.73895l-146.967738 46.290254a10.083026 10.083026 0 0 1-3.322815 0.534706zM948.762716 593.676327a11.076051 11.076051 0 0 0 3.322815-21.655589L833.457207 534.705904l119.697736-51.713699a11.076051 11.076051 0 0 0-8.784454-20.357018l-147.00593 63.553616a11.076051 11.076051 0 0 0 1.069412 20.738951l147.00593 46.290254a10.083026 10.083026 0 0 0 3.322815 0.458319zM692.753168 730.102719a688.281079 688.281079 0 0 1-119.086644-15.544664 801.562344 801.562344 0 0 1-136.082652-46.595801s0 137.495804 123.746223 208.879042c38.193279 22.075715 100.104584 31.967774 131.499459 35.710716z" fill="#231F20" p-id="8380"></path><path d="M692.753168 730.102719a684.576331 684.576331 0 0 0 119.16303-15.506471 803.548394 803.548394 0 0 0 136.082653-46.557607s0 137.495804-123.746224 208.879042c-38.193279 22.037522-100.104584 31.929581-131.499459 35.672523z" fill="#231F20" p-id="8381"></path><path d="M873.369184 696.950953c-18.40916 6.072731-39.262691 12.298236-61.452986 17.645295-37.047481 8.937227-89.181306 12.069076-119.086644 12.298236-28.339413 0.190966-82.11555-3.399202-119.16303-12.336429-22.190295-5.385252-43.043825-11.457984-61.491179-17.645295a246.232069 246.232069 0 0 0-6.722017 61.834918 422.532244 422.532244 0 0 0 9.051807 83.375928 243.405766 243.405766 0 0 0 46.93954 35.023237c38.193279 22.037522 99.837231 36.092649 131.423073 35.672522 34.068405-0.420126 93.229794-13.558614 131.499459-35.634329a241.839842 241.839842 0 0 0 46.82496-35.023237 422.188505 422.188505 0 0 0 9.051807-83.375928 244.436985 244.436985 0 0 0-6.87479-61.834918z" fill="#FFFFFF" p-id="8382"></path><path d="M636.685434 41.363321C638.213166 31.280295 636.418082 0 672.205184 0c16.957816 0 22.266682 23.832606 23.718026 40.714035 2.291597 26.735295-26.200589 203.26463-26.200589 203.26463s-36.971094-176.682108-33.037187-202.615344zM768.070314 139.138115c1.604118-4.812353 3.361009-20.433404 20.96811-17.377942 8.326135 1.451345 8.937227 13.635001 8.211555 22.075715-1.107605 13.329454-30.096304 97.96576-30.096304 97.965761s-3.284622-90.174331 0.916639-102.663534zM971.449524 213.271269c3.361009-3.819328 10.999664-17.568908 26.047816-7.982395 7.142143 4.545 3.017269 16.041177-0.916639 23.52706-6.149118 11.916303-65.501473 78.830928-65.501473 78.830927s31.776808-84.483533 40.370296-94.375592zM1107.990496 351.607325c4.65958-2.024244 17.454328-11.152437 26.735295 3.819328 4.468614 7.142143-4.201261 15.735631-10.923278 20.853531-10.694118 8.058782-93.038827 43.005632-93.038827 43.005632S1096.150579 356.839805 1107.990496 351.607325zM1195.644071 562.777964c5.079706 0.496513 20.662564-1.298571 21.617396 16.53769 0.458319 8.478908-11.457984 11.76353-19.669539 12.947522-13.253068 1.871471-102.205214-7.638656-102.205214-7.638656s87.195256-23.18332 100.257357-21.846556zM568.090306 149.870426c-1.565924-4.812353-3.322815-20.433404-20.929917-17.377942-8.326135 1.451345-8.937227 13.635001-8.249748 22.075716 1.145798 13.482227 30.17269 97.927567 30.17269 97.927567s3.170042-90.174331-0.993025-102.625341zM364.711096 224.003581c-3.322815-3.819328-10.961471-17.568908-26.009623-7.982396-7.142143 4.545-3.017269 16.002984 0.878445 23.52706 6.187311 11.87811 65.539667 78.792734 65.539667 78.792734s-31.776808-84.44534-40.408489-94.337398zM228.208317 362.339637c-4.65958-2.024244-17.454328-11.152437-26.735295 3.819328-4.468614 7.180336 4.163067 15.773824 10.923277 20.891723 10.694118 8.058782 93.038827 42.967439 93.038828 42.967439S240.2392 367.572116 228.208317 362.339637zM140.554742 573.510276c-5.079706 0.458319-20.700757-1.298571-21.617396 16.537689-0.458319 8.440715 11.457984 11.76353 19.669539 12.947522 13.253068 1.871471 102.205214-7.638656 102.205214-7.638656s-87.195256-23.106934-100.257357-21.846555zM902.014143 77.608743c4.545-9.128194 12.565589-39.49185 46.48122-28.339413 16.07937 5.270672 13.74958 29.561598 9.930253 45.831934-6.110925 26.086009-87.844541 185.161016-87.844542 185.161016s19.631345-179.202864 31.433069-202.653537zM1099.969907 207.389504c8.517101-5.614412 30.554623-27.995673 54.425423-1.489538 11.457984 12.603782-2.749916 32.50248-14.284287 44.915296-18.256387 19.593152-168.394167 116.871433-168.394166 116.871434S1078.199738 221.864757 1099.969907 207.389504zM1268.211301 409.164597c10.044832-1.642311 39.300884-13.062101 50.262355 20.929916 5.194286 16.117564-15.812017 28.530379-31.433069 35.099624-24.672858 10.426765-201.431353 37.773153-201.431353 37.773153s156.707023-89.525046 182.602067-93.802693zM1306.671933 696.759987c9.395547 3.819328 40.293909 9.624706 31.700421 44.26601-4.086681 16.42311-28.453993 15.926597-45.182649 13.291261-26.467942-4.124874-190.966394-73.942188-190.966394-73.942188s180.157696 6.378278 204.448622 16.384917zM437.851225 77.608743c-4.583193-9.128194-12.565589-39.49185-46.481221-28.339413-16.07937 5.270672-13.787774 29.561598-9.930252 45.831934 6.110925 26.086009 87.844541 185.161016 87.844541 185.161016s-19.631345-179.202864-31.433068-202.653537zM239.742687 207.389504c-8.478908-5.614412-30.554623-27.995673-54.387229-1.489538-11.457984 12.603782 2.749916 32.50248 14.284286 44.915296 18.256387 19.593152 168.394167 116.871433 168.394167 116.871434S261.665629 221.864757 239.742687 207.389504zM71.654067 409.164597c-10.044832-1.642311-39.339077-13.062101-50.262355 20.929916-5.194286 16.117564 15.812017 28.530379 31.394875 35.099624 24.711051 10.426765 201.469546 37.773153 201.469546 37.773153s-156.707023-89.525046-182.602066-93.802693zM33.193435 696.759987C23.797888 700.655701-7.100474 706.575659 1.493013 740.94961c4.086681 16.42311 28.453993 15.926597 45.182649 13.291261 26.467942-4.124874 191.157361-73.942188 191.157361-73.942188S57.293394 686.753348 33.193435 696.759987z" fill="#F4F408" p-id="8383"></path></svg>