<?xml version="1.0" standalone="no"?><!DOCTYPE svg PUBLIC "-//W3C//DTD SVG 1.1//EN" "http://www.w3.org/Graphics/SVG/1.1/DTD/svg11.dtd"><svg t="1725770417119" class="icon" viewBox="0 0 1024 1024" version="1.1" xmlns="http://www.w3.org/2000/svg" p-id="5311" xmlns:xlink="http://www.w3.org/1999/xlink" width="200" height="200"><path d="M506.490288 69.453486C476.694042 68.028694 438.881771 81.10978 416.083416 108.343849 381.422277 149.748761 382.675875 215.866506 427.362666 307.301699L428.245888 308.876802C429.714224 311.180203 431.468536 316.542118 430.727525 323.118261 429.341878 335.415261 419.37112 348.121552 395.353488 360.51059L409.978182 360.487373 409.950286 360.47313C409.918074 360.456758 409.918074 360.456758 409.894782 360.444979 409.84908 360.421952 409.84908 360.421952 409.799066 360.396979 409.692651 360.344202 409.692651 360.344202 409.569306 360.284163 409.297344 360.153611 409.297344 360.153611 408.958482 359.997282 408.181126 359.649182 408.181126 359.649182 407.141904 359.22392 405.396589 358.527842 403.416898 357.856798 401.211152 357.246531 371.002038 348.888534 333.920309 358.045854 295.548011 395.677165L318.80215 396.576042C312.55611 389.42396 301.272362 381.106034 284.71841 375.640085 258.16485 366.872365 226.786242 369.252573 191.454973 386.246094L213.840582 404.822256C214.277939 403.196826 215.001485 400.29671 215.914883 396.280347 217.416301 389.67836 218.913037 382.281915 220.308226 374.247648 225.399205 344.930978 227.852805 315.141565 226.192624 287.043797 225.981419 283.46927 225.703035 279.943717 225.355352 276.469627L225.434709 277.988298C225.434811 278.015862 225.434811 278.015862 225.434822 278.020507 225.434872 278.058997 225.434872 278.058997 225.434824 278.08471 225.434632 278.13167 225.434632 278.13167 225.434283 278.166821 225.433501 278.219568 225.433501 278.219568 225.43329 278.226342 225.434922 278.172179 225.434922 278.172179 225.448354 277.94409 225.483789 277.411522 225.55643 276.730035 225.678685 275.91253 226.065717 273.324469 226.799229 270.336299 227.977206 267.042038 231.513152 257.153622 238.04593 247.104405 248.52924 237.500339L234.435446 241.361722C248.428874 244.297891 268.003189 244.898672 288.008187 238.14875 322.75629 226.424333 342.864707 195.712774 340.373798 145.555775 340.283181 143.731097 339.880728 141.935417 339.183894 140.246606 336.377878 133.446087 330.93088 124.746357 322.000675 116.847227 306.715722 103.327062 286.59423 98.020843 263.077338 104.652504L266.279435 104.092621 266.231331 104.096131C266.173494 104.100527 266.173494 104.100527 266.133155 104.103727 266.055435 104.110077 266.055435 104.110077 265.973189 104.117279 265.801912 104.133024 265.801912 104.133024 265.612616 104.152655 265.207109 104.198223 265.207109 104.198223 264.730434 104.263097 263.671248 104.425549 263.200877 104.509307 262.334613 104.694811 260.183995 105.155349 257.774358 105.847199 255.114093 106.80813 248.195688 109.30717 240.342477 113.334991 231.597608 119.188614 207.989064 134.991658 181.178778 161.741853 151.345868 201.968997 151.071275 202.297886 150.000244 203.679909 148.537594 205.627157 146.147285 208.809413 143.496365 212.463875 140.649541 216.545331 132.541663 228.169491 124.441374 240.943709 116.86632 254.518114 101.277291 282.45347 89.930597 310.096677 84.666368 336.460043 84.385603 337.885381 84.385603 337.885381 84.119909 339.313579L84.517943 337.64927C83.864954 339.851528 82.755269 343.78888 81.340895 349.138469 78.996828 358.004435 76.655078 367.629226 74.467747 377.69479 71.176239 392.841507 68.528438 407.642827 66.757808 421.643398 60.800092 468.751723 64.513752 501.05097 86.285592 515.202802L95.005465 501.787742 80.553864 508.654419C96.557173 542.334965 187.469147 589.970301 260.978699 577.568424L252.185701 576.570014C254.042491 577.340344 257.972138 579.385573 263.286434 582.899634 272.463838 588.968162 281.707378 596.902325 290.367821 606.896446 322.448194 643.917093 338.014598 697.861314 327.325693 773.196826 327.166698 774.595635 326.98439 776.267688 326.719245 778.646397 326.275963 782.623229 325.759174 787.14977 325.174142 792.142123 323.501938 806.411858 321.619542 821.542035 319.569528 836.859258 313.748274 880.354312 307.75041 916.699683 302.010278 940.174957 299.911413 948.758634 305.168392 957.418544 313.752067 959.517408 322.335742 961.616272 330.995653 956.359294 333.094518 947.775619 339.180674 922.885213 345.322506 885.667445 351.286723 841.104197 353.361627 825.601005 355.265235 810.300325 356.956661 795.866573 357.548904 790.81269 358.072501 786.226498 358.522283 782.19136 358.792986 779.762802 358.978328 778.062906 359.076512 777.14403 370.989181 693.251272 352.739944 630.009886 314.551224 585.94023 296.203648 564.767189 277.614154 552.474946 264.448174 547.012752 261.669331 545.859888 258.62175 545.513848 255.655176 546.014342 221.844989 551.718494 186.964813 544.052618 154.071968 526.817686 131.949472 515.226115 111.051505 498.276723 109.457065 494.921066 108.188207 492.250627 106.204238 489.983984 103.725337 488.372683 96.855361 483.907155 94.132885 460.228648 98.504929 425.658408 100.14665 412.677131 102.633146 398.777514 105.737929 384.490061 107.818403 374.916224 110.049301 365.74705 112.277884 357.317877 113.607096 352.290397 114.631327 348.65625 115.197701 346.746107L115.595735 345.081802C115.814556 343.905538 115.814556 343.905538 116.046881 342.726096 120.566686 320.090824 130.711382 295.375963 144.809838 270.111698 151.8295 257.532547 159.366406 245.646789 166.895723 234.852102 171.381098 228.42148 174.82704 223.833842 176.708968 221.472894 204.823949 183.578554 229.066637 159.390203 249.397902 145.780898 256.031968 141.340199 261.57005 138.499781 265.985514 136.904844 267.292102 136.432883 268.308794 136.140973 269.035259 135.985406 269.175973 135.955273 269.2832 135.936179 269.237534 135.944102 269.159728 135.954817 269.159728 135.954817 269.008693 135.971937 268.919456 135.981211 268.919456 135.981211 268.811933 135.991117 268.754742 135.996128 268.754742 135.996128 268.692978 136.001177 268.658909 136.003879 268.658909 136.003879 268.642298 136.005156L268.606722 136.007846 271.762477 135.451342C284.396605 131.888572 293.386856 134.259383 300.799315 140.816005 305.48756 144.962948 308.494571 149.765628 309.60309 152.452178L308.413187 147.143011C310.20543 183.231643 298.729517 200.758789 277.777672 207.828187 270.02969 210.442448 261.312898 211.444438 252.442866 211.172197 247.086048 211.007782 243.007501 210.463517 241.006747 210.043707 235.96107 208.985 230.714395 210.42247 226.912946 213.90509 212.507656 227.102194 203.099834 241.574024 197.845683 256.267469 195.947126 261.576861 194.71767 266.585398 194.030613 271.179715 193.776936 272.876042 193.611608 274.427038 193.51895 275.819678 193.468952 276.656934 193.468952 276.656934 193.446816 277.296037 193.439525 277.577248 193.439525 277.577248 193.43631 277.806552 193.43529 277.911325 193.43529 277.911325 193.434928 278.002827 193.43485 278.046074 193.43485 278.046074 193.434891 278.085968 193.434933 278.104794 193.434933 278.104794 193.434971 278.116934L193.435051 278.136363C193.818192 282.691651 194.062402 285.7844 194.248336 288.931253 195.7438 314.241256 193.482883 341.691267 188.780075 368.772634 187.482874 376.242634 186.094906 383.101587 184.711619 389.184128 183.894198 392.778467 183.271538 395.274211 182.939648 396.507677 179.382898 409.726246 192.989262 421.017163 205.325258 415.083834 233.30028 401.628496 256.122595 399.897322 274.685125 406.026483 285.200834 409.498666 291.94297 414.468698 294.699618 417.625221 300.751088 424.554502 311.385453 424.96557 317.95376 418.524099 348.081512 388.97813 373.345733 382.739139 392.678232 388.087888 393.734768 388.3802 394.608035 388.676206 395.287459 388.947179 395.586566 389.069912 395.586566 389.069912 395.672046 389.108632 395.673675 389.109446 395.673675 389.109446 395.619786 389.083658 395.582302 389.065424 395.582302 389.065424 395.530699 389.039845 395.502243 389.025637 395.502243 389.025637 395.470282 389.009534 395.452392 389.000486 395.452392 389.000486 395.443878 388.996166L395.425494 388.986818C399.992102 391.32412 405.437424 391.315477 410.023366 388.949906 442.97132 371.954331 459.850965 350.443661 462.526285 326.7014 464.221854 311.653984 460.274805 299.590146 455.229587 291.675642L456.11281 293.250746C416.416693 212.027144 415.41127 158.998832 440.620666 128.884624 457.712666 108.467155 489.263133 98.943215 509.742952 101.861411 511.38971 102.09606 513.013586 102.071052 514.573152 101.817477 535.060245 99.041229 566.375042 108.571908 583.379349 128.884624 608.588744 158.998832 607.583323 212.027144 567.887205 293.250746 563.72521 299.590146 559.77816 311.653984 561.47373 326.7014 564.14905 350.443661 581.028694 371.954331 613.976648 388.949906 618.56259 391.315477 624.007912 391.32412 628.601342 388.973122 629.391979 388.676206 630.265246 388.3802 631.321782 388.087888 650.654282 382.739139 675.918504 388.97813 706.046254 418.524099 712.614562 424.96557 723.248926 424.554502 729.300394 417.625222 732.057045 414.468698 738.799181 409.498666 749.31489 406.026483 767.877421 399.897322 790.699734 401.628496 818.674757 415.083834 831.010754 421.017163 844.617117 409.726246 841.060366 396.507672 840.728477 395.274211 840.105818 392.778467 839.288395 389.184128 837.905109 383.101587 836.517141 376.242634 835.219939 368.772634 830.517131 341.691267 828.256214 314.241256 829.751678 288.931253 829.937613 285.7844 830.181822 282.691651 830.485603 279.656237 830.531062 276.656934 830.531062 276.656934 830.481066 275.819678 830.388406 274.427038 830.22308 272.876042 829.969402 271.179715 829.282344 266.585398 828.052888 261.576861 826.154331 256.267469 820.900181 241.574024 811.492358 227.102194 797.087069 213.90509 793.285619 210.42247 788.038944 208.985 782.993274 210.043706 780.992514 210.463517 776.913968 211.007782 771.557149 211.172197 762.687117 211.444438 753.970325 210.442448 746.222342 207.828187 725.270498 200.758789 713.794586 183.231643 715.586827 147.143011L714.396925 152.452181C715.505443 149.765628 718.512456 144.962948 723.200699 140.816005 730.613158 134.259383 739.60341 131.888572 752.237538 135.451342L755.439634 136.011225C755.691221 136.140973 756.707912 136.432883 758.014501 136.904844 762.429965 138.499781 767.968046 141.340199 774.602112 145.780898 794.933378 159.390203 819.176066 183.578554 846.951024 221.030725 849.172974 223.833842 852.618917 228.42148 857.104291 234.852102 864.63361 245.646789 872.170515 257.532547 879.190178 270.111698 893.288632 295.375963 903.43333 320.090824 907.953133 342.726096 908.185458 343.905538 908.802314 346.74611 908.802314 346.74611 909.368688 348.65625 910.392918 352.290397 911.722131 357.317877 913.950714 365.74705 916.181611 374.916224 918.262086 384.490061 921.366869 398.777514 923.853365 412.677131 925.495086 425.658408 929.86713 460.228648 927.144654 483.907155 920.274677 488.372683 917.795776 489.983984 915.811808 492.250627 914.542949 494.921066 912.948509 498.276723 892.050542 515.226115 869.928046 526.817686 837.035202 544.052618 802.155026 551.718494 768.344838 546.014342 765.378264 545.513848 762.330685 545.859888 759.551842 547.012752 746.385861 552.474946 727.796366 564.767189 709.44879 585.94023 671.26007 630.009886 653.010834 693.251272 664.991637 777.692091 665.021686 778.062906 665.207029 779.762802 665.477731 782.19136 665.927514 786.226498 666.451112 790.81269 667.043354 795.866573 668.734779 810.300325 670.638387 825.601005 672.713291 841.104197 678.677509 885.667445 684.819341 922.885213 690.905496 947.775619 693.004362 956.359294 701.664272 961.616272 710.247947 959.517408 718.831622 957.418544 724.088602 948.758634 721.989736 940.174957 716.249605 916.699683 710.251741 880.354312 704.430486 836.859258 702.380472 821.542035 700.498077 806.411858 698.825872 792.142123 698.24084 787.14977 697.724053 782.623229 697.28077 778.646397 697.015624 776.267688 696.833317 774.595635 696.742456 773.744888 685.985416 697.861314 701.551821 643.917093 733.632194 606.896446 742.292637 596.902325 751.536176 588.968162 760.713581 582.899634 766.027877 579.385573 769.957523 577.340344 771.814317 576.570013L763.021315 577.568424C836.530867 589.970301 927.442842 542.334965 943.44615 508.654419L928.99455 501.787742 937.714422 515.202802C959.486262 501.05097 963.199923 468.751723 957.242206 421.643398 955.471576 407.642827 952.823776 392.841507 949.532267 377.69479 947.344938 367.629226 945.003186 358.004435 942.65912 349.138469 941.244746 343.78888 940.135061 339.851528 939.482072 337.649274 934.069418 310.096677 922.722725 282.45347 907.133694 254.518114 899.55864 240.943709 891.458352 228.169491 883.350474 216.545331 880.50365 212.463875 877.85273 208.809413 875.462421 205.627157 873.999771 203.679909 872.928741 202.297886 872.314125 201.526829 842.821237 161.741853 816.01095 134.991658 792.402406 119.188614 783.657538 113.334991 775.804326 109.30717 768.885922 106.80813 766.225656 105.847199 763.816019 105.155349 761.665402 104.694811 760.799138 104.509307 760.328766 104.425549 759.269581 104.263097 757.944579 104.110077 757.944579 104.110077 757.866859 104.103727 757.82652 104.100527 760.922677 104.652504 760.922677 104.652504 737.405784 98.020843 717.284293 103.327062 701.999339 116.847227 693.069134 124.746357 687.622136 133.446087 684.81612 140.246608 684.119286 141.935417 683.716834 143.731097 683.626216 145.555775 681.135307 195.712774 701.243725 226.424333 735.991827 238.14875 755.996826 244.898672 775.571141 244.297891 789.564571 241.361722L775.470774 237.500339C785.954085 247.104405 792.486862 257.153622 796.02281 267.042038 797.200786 270.336299 797.934298 273.324469 798.32133 275.91253 798.296979 279.943717 798.018595 283.46927 797.80739 287.043797 796.14721 315.141565 798.60081 344.930978 803.691789 374.247648 805.086979 382.281915 806.583714 389.67836 808.085131 396.280347 808.99853 400.29671 809.722075 403.196826 810.159432 404.822251L832.545042 386.246094C797.213774 369.252573 765.835165 366.872365 739.281605 375.640085 722.727653 381.106034 711.443904 389.42396 705.197861 396.576045L728.452003 395.677165C690.079706 358.045854 652.997976 348.888534 622.788862 357.246531 620.583117 357.856798 618.603426 358.527842 616.85811 359.22392 615.818888 359.649182 615.818888 359.649182 615.041533 359.997282 614.081941 360.456758 628.646526 360.51059 628.646526 360.51059 604.628894 348.121552 594.658136 335.415261 593.27249 323.118261 592.531478 316.542118 594.28579 311.180203 595.754126 308.876803 641.324139 215.866506 642.577738 149.748761 607.916598 108.343849 583.08436 78.680179 538.139648 66.652344 506.936523 69.383789 506.782854 69.397241 506.634136 69.420592 506.490288 69.453486Z" fill="#000000" p-id="5312"></path></svg>