<?xml version="1.0" standalone="no"?><!DOCTYPE svg PUBLIC "-//W3C//DTD SVG 1.1//EN" "http://www.w3.org/Graphics/SVG/1.1/DTD/svg11.dtd"><svg t="1725770999237" class="icon" viewBox="0 0 1024 1024" version="1.1" xmlns="http://www.w3.org/2000/svg" p-id="9628" xmlns:xlink="http://www.w3.org/1999/xlink" width="85" height="85"><path d="M472.64 56.106667c109.973333-10.026667 223.36 21.333333 312 87.36C900.266667 227.413333 973.12 368.64 970.346667 512c2.666667 108.16-37.866667 215.466667-107.626667 297.706667-90.346667 107.733333-232.213333 169.92-372.906667 160.426666-202.986667-4.373333-387.52-163.84-425.92-362.453333-27.626667-128.853333 3.306667-269.333333 84.586667-373.44 76.8-101.333333 197.226667-168.106667 324.16-178.133333m-149.333333 67.733333C180.693333 182.613333 88 333.226667 77.44 484.266667c-8 125.44 40 254.613333 131.52 341.546666 77.333333 76.373333 184.106667 118.506667 291.946667 124.8 123.413333 2.026667 246.506667-50.133333 330.346666-140.8 23.04-24.96 48.106667-50.986667 54.506667-85.653333l8.32-2.346667c16.746667-28.053333 29.013333-58.453333 36.586667-90.133333 30.933333-101.653333 18.56-213.226667-26.666667-308.586667-54.293333-112.853333-159.893333-199.253333-280.96-230.826666-99.306667-24.533333-208.533333-16.32-299.733333 31.573333z" fill="#E4A551" opacity=".95" p-id="9629"></path><path d="M323.306667 123.84c91.2-47.893333 200.426667-56.106667 299.733333-31.573333 121.066667 31.573333 226.666667 117.973333 280.96 230.826666 45.226667 95.36 57.6 206.933333 26.666667 308.586667-77.546667 34.24-164.053333 33.92-247.04 27.093333-103.573333-13.013333-189.76-82.133333-252.053334-162.133333-18.56-26.56-27.52-58.453333-33.386666-89.92 1.813333-11.2 3.733333-22.293333 5.653333-33.493333 2.56-30.293333-16.533333-54.186667-42.026667-67.946667-7.893333-4.053333-15.893333-8-23.893333-11.84 4.693333-20.16 9.066667-40.32 13.333333-60.586667 13.44-3.733333 26.773333-7.573333 40.213334-11.626666 0.64-7.893333 1.813333-23.786667 2.453333-31.786667-33.066667 0.213333-65.92 5.653333-97.066667 16.853333 13.013333-25.92 26.56-52.586667 26.453334-82.453333m296.106666 69.013333c0.213333 7.36 0.746667 21.973333 0.96 29.333334 47.253333 10.346667 92.906667 26.453333 138.986667 41.173333 19.093333 8.64 37.44-14.186667 18.773333-27.84-47.466667-27.946667-103.04-46.186667-158.72-42.666667m13.546667 142.72c-29.76 41.173333 9.173333 105.6 60.16 95.36 35.626667-3.2 51.946667-36.693333 57.28-67.84-7.786667-24.64-24.746667-43.52-45.76-57.813333-25.813333 3.413333-57.493333 4.053333-71.68 30.293333z" fill="#FDED78" p-id="9630"></path><path d="M77.44 484.266667c10.56-151.04 103.253333-301.653333 245.866667-360.426667 0.106667 29.866667-13.44 56.533333-26.453334 82.453333-28.586667 10.346667-56.533333 24.64-75.84 48.96 13.866667 3.2 27.626667 6.933333 41.28 10.88-8 8.64-16.106667 17.386667-22.08 27.52-28.586667 128.853333 17.066667 267.2 106.026667 362.773334 31.893333 31.146667 70.933333 56.853333 88.96 99.52-2.133333 14.186667-4.48 28.373333-7.04 42.453333 3.733333 2.346667 11.2 7.146667 14.933333 9.6 14.4-33.066667 34.986667-76.16 78.72-69.333333 42.666667-0.533333 44.8 50.773333 71.68 72.746666 2.133333-8.533333 6.293333-25.493333 8.32-34.026666 2.56 4.266667 7.466667 12.906667 9.92 17.173333 40.213333-8.213333 81.066667-13.333333 121.6-19.733333 53.44-8.533333 100.053333-38.4 152.426667-50.666667-6.4 34.666667-31.466667 60.693333-54.506667 85.653333-83.84 90.666667-206.933333 142.826667-330.346666 140.8-107.84-6.293333-214.613333-48.426667-291.946667-124.8C117.44 738.88 69.44 609.706667 77.44 484.266667z" fill="#FFCA73" p-id="9631"></path><path d="M296.853333 206.293333c31.146667-11.2 64-16.64 97.066667-16.853333-0.64 8-1.813333 23.893333-2.453333 31.786667-13.44 4.053333-26.773333 7.893333-40.213334 11.626666-30.4 8.746667-61.013333 18.026667-88.96 33.28-13.653333-3.946667-27.413333-7.68-41.28-10.88 19.306667-24.32 47.253333-38.613333 75.84-48.96z" fill="#A33D0D" p-id="9632"></path><path d="M619.413333 192.853333c55.68-3.52 111.253333 14.72 158.72 42.666667 18.666667 13.653333 0.32 36.48-18.773333 27.84-46.08-14.72-91.733333-30.826667-138.986667-41.173333-0.213333-7.36-0.746667-21.973333-0.96-29.333334z" fill="#A33C0C" p-id="9633"></path><path d="M262.293333 266.133333c27.946667-15.253333 58.56-24.533333 88.96-33.28-4.266667 20.266667-8.64 40.426667-13.333333 60.586667 8 3.84 16 7.786667 23.893333 11.84-22.826667 4.16-50.56 2.24-66.56 22.293333-28.8 30.72-14.826667 88.533333 26.88 99.733334 27.52 11.413333 52.8-8.533333 76.053334-20.586667 5.866667 31.466667 14.826667 63.36 33.386666 89.92 62.293333 80 148.48 149.12 252.053334 162.133333 82.986667 6.826667 169.493333 7.146667 247.04-27.093333-7.573333 31.68-19.84 62.08-36.586667 90.133333l-8.32 2.346667c-52.373333 12.266667-98.986667 42.133333-152.426667 50.666667-40.533333 6.4-81.386667 11.52-121.6 19.733333-2.453333-4.266667-7.36-12.906667-9.92-17.173333-16.106667-27.2-35.52-58.56-70.506666-61.866667-38.08-9.386667-70.506667 15.786667-96.106667 40.426667-18.026667-42.666667-57.066667-68.373333-88.96-99.52-88.96-95.573333-134.613333-233.92-106.026667-362.773334 5.973333-10.133333 14.08-18.88 22.08-27.52z" fill="#FEDA75" p-id="9634"></path><path d="M295.253333 327.573333c16-20.053333 43.733333-18.133333 66.56-22.293333-12.373333 19.306667-41.066667 43.626667-20.053333 67.2 15.466667 21.44 42.24 4.906667 62.08 0.746667-1.92 11.2-3.84 22.293333-5.653333 33.493333-23.253333 12.053333-48.533333 32-76.053334 20.586667-41.706667-11.2-55.68-69.013333-26.88-99.733334z" fill="#1D1D1E" p-id="9635"></path><path d="M361.813333 305.28c25.493333 13.76 44.586667 37.653333 42.026667 67.946667-19.84 4.16-46.613333 20.693333-62.08-0.746667-21.013333-23.573333 7.68-47.893333 20.053333-67.2zM704.64 305.28c21.013333 14.293333 37.973333 33.173333 45.76 57.813333-20.48 14.826667-50.88 43.946667-73.28 14.933334-25.6-28.16 6.933333-54.933333 27.52-72.746667z" fill="#808081" p-id="9636"></path><path d="M632.96 335.573333c14.186667-26.24 45.866667-26.88 71.68-30.293333-20.586667 17.813333-53.12 44.586667-27.52 72.746667 22.4 29.013333 52.8-0.106667 73.28-14.933334-5.333333 31.146667-21.653333 64.64-57.28 67.84-50.986667 10.24-89.92-54.186667-60.16-95.36z" fill="#1C1C1D" p-id="9637"></path><path d="M435.2 755.946667c25.6-24.64 58.026667-49.813333 96.106667-40.426667 34.986667 3.306667 54.4 34.666667 70.506666 61.866667-2.026667 8.533333-6.186667 25.493333-8.32 34.026666-26.88-21.973333-29.013333-73.28-71.68-72.746666-43.733333-6.826667-64.32 36.266667-78.72 69.333333-3.733333-2.453333-11.2-7.253333-14.933333-9.6 2.56-14.08 4.906667-28.266667 7.04-42.453333z" fill="#8C301C" p-id="9638"></path></svg>